PathFileType	4	(X/Y/Z)	/Users/itak/Documents/Research/Walk-IL/dataset/trc/00503_00183.trc
DataRate	CameraRate	NumFrames	NumMarkers	Units	OrigDataRate	OrigDataStartFrame	OrigNumFrames
100.000000	100.000000	4	53	mm	100.000000	618	707
Frame#	Time	RPSI			LPSI			L3			STRN			T10			C7			CLAV			RBAK			LBAK			LSHO			LUPA			LAEL			LAOL			LWTS			LWPS			LFRA			LIFD			LHPS			LHTS			RSHO			RUPA			RAEL			RAOL			RWTS			RWPS			RFRA			RIFD			RHTS			RHPS			RBHD			LFHD			RFHD			LBHD			LHIP			RHIP			RASI			LASI			LKNE			LTHI			LANK			LTIP			LTOE			LMT1			LMT5			LHEE			RKNE			RTHI			RANK			RTIP			RTOE			RMT1			RMT5			RHEE			
		X1	Y1	Z1	X2	Y2	Z2	X3	Y3	Z3	X4	Y4	Z4	X5	Y5	Z5	X6	Y6	Z6	X7	Y7	Z7	X8	Y8	Z8	X9	Y9	Z9	X10	Y10	Z10	X11	Y11	Z11	X12	Y12	Z12	X13	Y13	Z13	X14	Y14	Z14	X15	Y15	Z15	X16	Y16	Z16	X17	Y17	Z17	X18	Y18	Z18	X19	Y19	Z19	X20	Y20	Z20	X21	Y21	Z21	X22	Y22	Z22	X23	Y23	Z23	X24	Y24	Z24	X25	Y25	Z25	X26	Y26	Z26	X27	Y27	Z27	X28	Y28	Z28	X29	Y29	Z29	X30	Y30	Z30	X31	Y31	Z31	X32	Y32	Z32	X33	Y33	Z33	X34	Y34	Z34	X35	Y35	Z35	X36	Y36	Z36	X37	Y37	Z37	X38	Y38	Z38	X39	Y39	Z39	X40	Y40	Z40	X41	Y41	Z41	X42	Y42	Z42	X43	Y43	Z43	X44	Y44	Z44	X45	Y45	Z45	X46	Y46	Z46	X47	Y47	Z47	X48	Y48	Z48	X49	Y49	Z49	X50	Y50	Z50	X51	Y51	Z51	X52	Y52	Z52	X53	Y53	Z53	

619	6.18	629.2304077148438	966.7972412109375	413.0921936035156	695.2061767578125	962.5228271484375	307.5916748046875	654.5158081054688	1027.1044921875	351.3150329589844	849.8973999023438	1195.626586914062	442.4107360839844	639.2275390625	1132.81884765625	343.6202697753906	677.7321166992188	1363.890869140625	356.3783874511719	817.920166015625	1290.0439453125	422.9439086914062	598.8038330078125	1244.21630859375	419.2368469238281	692.0953979492188	1306.224365234375	269.0590209960938	809.1585693359375	1350.796752929688	240.2987060546875	823.8001098632812	1223.936279296875	181.7334136962891	840.75341796875	1013.700073242188	165.1104736328125	745.6723022460938	1006.868347167969	193.3013305664062	893.60205078125	821.739990234375	240.0037536621094	842.810546875	789.6085815429688	167.1994323730469	853.83154296875	928.6934204101562	171.0322723388672	885.6455688476562	665.1690063476562	250.0631713867188	859.1945190429688	734.39892578125	182.7453002929688	906.5062866210938	742.9948120117188	226.9651336669922	665.8411865234375	1364.6640625	514.6187133789062	627.64111328125	1299.198974609375	563.416748046875	622.7953491210938	1032.584106445312	617.68994140625	589.6648559570312	1013.449523925781	562.9797973632812	734.3445434570312	833.4996337890625	632.6505737304688	648.2675170898438	810.4765625	650.3601684570312	626.1344604492188	978.5684204101562	628.0269165039062	740.9440307617188	674.561767578125	639.8731689453125	742.7113037109375	741.4153442382812	663.2835083007812	671.9403686523438	736.8475952148438	662.1691284179688	664.8818359375	1518.055053710938	421.2551574707031	844.8828735351562	1588.9853515625	370.0757446289062	770.9566040039062	1590.044189453125	473.5176391601562	747.3485717773438	1511.621948242188	283.1978759765625	852.2731323242188	883.8187866210938	251.7556762695312	654.0953369140625	870.9378051757812	576.4300537109375	775.7064208984375	913.211181640625	570.3448486328125	895.7727661132812	917.8683471679688	359.1047973632812	823.1069946289062	462.9353332519531	302.0464477539062	854.859375	618.9254150390625	285.6935424804688	704.0555419921875	45.79153060913086	257.707763671875	787.5097045898438	313.4874267578125	282.3134155273438	845.5958862304688	30.83231925964355	410.1078491210938	762.021728515625	37.63805770874023	396.7863159179688	802.6542358398438	35.24934768676758	303.3994750976562	634.00390625	45.19137954711914	290.8817749023438	672.0360107421875	481.1046142578125	565.2537231445312	676.0809326171875	741.6438598632812	594.3252563476562	627.24853515625	43.24051284790039	523.52392578125	680.3405151367188	337.0605773925781	553.6016235351562	830.3017578125	34.15207290649414	560.1812744140625	781.4154663085938	40.91632080078125	501.6430358886719	726.6056518554688	37.452392578125	580.6546630859375	598.137451171875	34.89119720458984	459.1332092285156	
620	6.19	629.5517578125	966.6771240234375	414.3817138671875	695.8807983398438	962.3944091796875	309.0195007324219	654.7686767578125	1026.857543945312	352.6362609863281	849.9118041992188	1195.590576171875	444.0375366210938	639.4965209960938	1132.574340820312	344.9750671386719	677.780029296875	1363.657958984375	357.6128540039062	817.9067993164062	1289.968872070312	424.4134521484375	598.870361328125	1243.987548828125	420.4510192871094	692.2463989257812	1305.899291992188	270.3827209472656	809.3215942382812	1350.4736328125	241.6421508789062	823.8703002929688	1223.450317382812	183.3611602783203	840.1911010742188	1013.112121582031	167.3093414306641	745.1439208984375	1006.620910644531	195.6042785644531	892.4237060546875	820.8976440429688	242.1074371337891	840.9312744140625	788.908447265625	169.7441101074219	852.9556274414062	928.0519409179688	173.3380432128906	883.5872192382812	664.3739013671875	252.6248016357422	857.0819091796875	733.6346435546875	185.2559661865234	904.7791748046875	742.0087890625	229.1137847900391	665.6533203125	1364.607543945312	515.831298828125	627.4546508789062	1299.124145507812	564.6419677734375	623.00048828125	1032.478393554688	618.9033203125	589.8978881835938	1013.259643554688	564.2703247070312	735.1900024414062	833.63720703125	633.6494750976562	649.271728515625	810.3724975585938	651.50732421875	626.6248168945312	978.444091796875	629.2344360351562	742.3963623046875	674.7716064453125	640.8211059570312	743.9075927734375	741.5900268554688	664.257080078125	673.1325073242188	736.7740478515625	663.246337890625	664.8345336914062	1517.778686523438	422.5416564941406	844.7542114257812	1588.98828125	371.5244750976562	770.7633056640625	1589.877563476562	474.9554748535156	747.2943725585938	1511.482177734375	284.6025695800781	853.113037109375	883.7291870117188	253.6081695556641	653.6884155273438	871.1800537109375	577.8743896484375	775.7265014648438	913.1368408203125	572.0543212890625	896.3153076171875	917.80712890625	361.1025085449219	823.4520874023438	462.8528747558594	303.198486328125	855.581787109375	618.8939208984375	287.3580627441406	704.0608520507812	45.93692779541016	257.8083190917969	787.6937866210938	313.5223388671875	283.0650024414062	845.6139526367188	30.79038047790527	410.2012634277344	761.942138671875	37.56970977783203	396.8742980957031	802.6112060546875	35.36648941040039	303.5108032226562	633.945556640625	45.2382698059082	290.9789428710938	671.4429321289062	480.9989624023438	566.0733642578125	675.164794921875	741.6676635742188	596.010986328125	627.198974609375	43.1907958984375	523.5258178710938	679.7017211914062	336.9734802246094	554.1142578125	830.2269287109375	34.14905548095703	560.2108154296875	781.4132690429688	41.0003547668457	501.6743469238281	726.569580078125	37.40789413452148	580.7028198242188	598.02685546875	34.84853363037109	459.195068359375	
621	6.2	629.8651733398438	966.56298828125	415.6142272949219	696.4895629882812	962.2708129882812	310.403564453125	655.0260009765625	1026.635009765625	353.9207763671875	849.9130859375	1195.56005859375	445.6207580566406	639.7692260742188	1132.353393554688	346.2892456054688	677.8226928710938	1363.447143554688	358.8218688964844	817.8849487304688	1289.901611328125	425.8525085449219	598.9248046875	1243.772094726562	421.6297607421875	692.3976440429688	1305.610717773438	271.6729125976562	809.479736328125	1350.2001953125	242.9674072265625	823.9591674804688	1223.003784179688	184.9903564453125	839.6575927734375	1012.569946289062	169.5216217041016	744.6791381835938	1006.391784667969	197.9999084472656	891.5117797851562	820.1636962890625	244.0570373535156	839.1068115234375	788.275146484375	172.3359985351562	852.1165161132812	927.4864501953125	175.6541595458984	881.6065673828125	663.6351928710938	255.0474395751953	855.0899047851562	732.9315185546875	187.7801055908203	903.31396484375	741.1340942382812	231.1000518798828	665.4586791992188	1364.55029296875	517.0174560546875	627.267578125	1299.046142578125	565.838134765625	623.1439819335938	1032.381225585938	620.0970458984375	590.0921020507812	1013.078796386719	565.5443725585938	735.9824829101562	833.7744750976562	634.6031494140625	650.2338256835938	810.2721557617188	652.6348876953125	627.0610961914062	978.324462890625	630.426025390625	743.7921752929688	674.9791259765625	641.6990356445312	745.0374145507812	741.7520751953125	665.1672973632812	674.278076171875	736.70166015625	664.2854614257812	664.7737426757812	1517.551513671875	423.8049926757812	844.6467895507812	1588.971923828125	372.9564514160156	770.5894165039062	1589.719604492188	476.3699951171875	747.2308959960938	1511.345825195312	285.9955749511719	853.885009765625	883.6142578125	255.3949737548828	653.5056762695312	871.28759765625	579.2168579101562	775.7379150390625	913.09619140625	573.7008666992188	896.8148803710938	917.7506103515625	363.020263671875	823.8042602539062	462.7574157714844	304.3174743652344	856.33984375	618.8677368164062	289.0025939941406	704.0625610351562	46.08010482788086	257.8993835449219	787.8788452148438	313.558837890625	283.7953796386719	845.6321411132812	30.76093292236328	410.2868041992188	761.8623046875	37.5098876953125	396.9536743164062	802.5724487304688	35.47400283813477	303.6182250976562	633.8973999023438	45.28565216064453	291.0657958984375	670.9435424804688	480.9032592773438	566.899658203125	674.2745361328125	741.7518310546875	597.6377563476562	627.1483154296875	43.15543365478516	523.5324096679688	679.1488037109375	336.8876953125	554.6378784179688	830.16162109375	34.14395904541016	560.240234375	781.4140625	41.09197998046875	501.7051086425781	726.5318603515625	37.35934829711914	580.7564697265625	597.9168701171875	34.82315444946289	459.2603454589844	
622	6.21	630.1680908203125	966.4418334960938	416.798583984375	697.019287109375	962.1546020507812	311.7574462890625	655.289794921875	1026.424194335938	355.1664123535156	849.9026489257812	1195.530029296875	447.1570434570312	640.03564453125	1132.15087890625	347.5605163574219	677.86181640625	1363.253051757812	360.0057983398438	817.8555297851562	1289.83642578125	427.261962890625	598.9605102539062	1243.565673828125	422.7744445800781	692.5540771484375	1305.356079101562	272.9277954101562	809.635009765625	1349.972534179688	244.2731475830078	824.0581665039062	1222.592163085938	186.6139373779297	839.1421508789062	1012.074951171875	171.7151489257812	744.2705078125	1006.172241210938	200.4796600341797	890.8821411132812	819.5487060546875	245.8203277587891	837.3896484375	787.7232666015625	174.9261627197266	851.3070678710938	926.99951171875	177.9409027099609	879.8703002929688	662.9746704101562	257.2813110351562	853.2867431640625	732.3018798828125	190.2591400146484	902.1575927734375	740.39404296875	232.8831329345703	665.2586059570312	1364.481323242188	518.1800537109375	627.0787963867188	1298.952026367188	567.0042114257812	623.2562866210938	1032.275024414062	621.2758178710938	590.2578125	1012.893371582031	566.8024291992188	736.7164916992188	833.8956909179688	635.5186767578125	651.1383056640625	810.1636352539062	653.748779296875	627.44677734375	978.1981201171875	631.6045532226562	745.1090698242188	675.1632080078125	642.5203857421875	746.092529296875	741.8871459960938	666.0253295898438	675.3766479492188	736.6203002929688	665.2947387695312	664.7012329101562	1517.367065429688	425.0466613769531	844.55859375	1588.933471679688	374.37158203125	770.432373046875	1589.566162109375	477.75927734375	747.1649780273438	1511.208740234375	287.3707885742188	854.5869750976562	883.4794921875	257.11865234375	653.5223999023438	871.2698364257812	580.47412109375	775.7474365234375	913.0748901367188	575.28466796875	897.271728515625	917.69384765625	364.8574523925781	824.1493530273438	462.6546325683594	305.3968811035156	857.0733642578125	618.8348999023438	290.6014709472656	704.0546875	46.21955108642578	257.9833679199219	788.06103515625	313.5988464355469	284.498779296875	845.65087890625	30.73561668395996	410.3672790527344	761.7867431640625	37.45872116088867	397.0258178710938	802.537353515625	35.56988906860352	303.7230529785156	633.858154296875	45.33068466186523	291.1452941894531	670.5278930664062	480.8075866699219	567.7213745117188	673.5327758789062	741.8431396484375	599.1604614257812	627.0999145507812	43.12884140014648	523.5406494140625	678.6746215820312	336.7989501953125	555.1631469726562	830.1102294921875	34.13535308837891	560.2673950195312	781.4122314453125	41.18220138549805	501.7336730957031	726.4957885742188	37.30971145629883	580.809814453125	597.8258666992188	34.8040657043457	459.3166198730469	
